STARTFONT 2.1
COMMENT  
COMMENT  WARNING:  This bdf file was generated from an X server using
COMMENT  xbdfdump.  The resulting font is subject to the same copyright,
COMMENT  license, and trademark restrictions as the original font.  The
COMMENT  author and distributors of xbdfdump disclaim all liability for
COMMENT  misuse of the program or its output.
COMMENT  
FONT -Phaisarn-ThaiSmall-Medium-R-Normal--20-200-75-75-C-100-tis620-0
SIZE 20 75 75
FONTBOUNDINGBOX 22 14 -8 -2
STARTPROPERTIES 21
FONTNAME_REGISTRY ""
FOUNDRY "Phaisarn"
FAMILY_NAME "ThaiSmall"
WEIGHT_NAME "Medium"
SLANT "R"
SETWIDTH_NAME "Normal"
ADD_STYLE_NAME ""
PIXEL_SIZE 20
POINT_SIZE 200
RESOLUTION_X 75
RESOLUTION_Y 75
SPACING "C"
AVERAGE_WIDTH 100
CHARSET_REGISTRY "tis620"
CHARSET_ENCODING "0"
COPYRIGHT "Copyright 1997  Phaisarn Techajaruwong, TITech."
WEIGHT 10
X_HEIGHT 18
QUAD_WIDTH 10
FONT_ASCENT 12
FONT_DESCENT 3
ENDPROPERTIES
CHARS 223
STARTCHAR space
ENCODING 32
SWIDTH 240 0
DWIDTH 5 0
BBX 1 1 0 0
BITMAP
00
ENDCHAR
STARTCHAR exclam
ENCODING 33
SWIDTH 144 0
DWIDTH 3 0
BBX 2 9 0 0
BITMAP
c0
c0
c0
c0
c0
c0
c0
00
c0
ENDCHAR
STARTCHAR quotedbl
ENCODING 34
SWIDTH 288 0
DWIDTH 6 0
BBX 5 3 0 6
BITMAP
d8
d8
d8
ENDCHAR
STARTCHAR numbersign
ENCODING 35
SWIDTH 384 0
DWIDTH 8 0
BBX 7 9 0 0
BITMAP
6c
6c
fe
6c
6c
6c
fe
6c
6c
ENDCHAR
STARTCHAR dollar
ENCODING 36
SWIDTH 336 0
DWIDTH 7 0
BBX 6 10 0 -1
BITMAP
30
78
fc
f0
70
38
3c
fc
78
30
ENDCHAR
STARTCHAR percent
ENCODING 37
SWIDTH 432 0
DWIDTH 9 0
BBX 8 9 0 0
BITMAP
70
db
76
0c
18
30
6e
db
0e
ENDCHAR
STARTCHAR ampersand
ENCODING 38
SWIDTH 336 0
DWIDTH 7 0
BBX 6 9 0 0
BITMAP
60
f0
f0
60
60
fc
d8
d8
7c
ENDCHAR
STARTCHAR apostrophe
ENCODING 39
SWIDTH 144 0
DWIDTH 3 0
BBX 2 3 0 6
BITMAP
c0
c0
c0
ENDCHAR
STARTCHAR parenleft
ENCODING 40
SWIDTH 192 0
DWIDTH 4 0
BBX 3 11 0 -2
BITMAP
60
c0
c0
c0
c0
c0
c0
c0
c0
c0
60
ENDCHAR
STARTCHAR parenright
ENCODING 41
SWIDTH 192 0
DWIDTH 4 0
BBX 3 11 0 -2
BITMAP
c0
60
60
60
60
60
60
60
60
60
c0
ENDCHAR
STARTCHAR asterisk
ENCODING 42
SWIDTH 240 0
DWIDTH 5 0
BBX 4 3 0 5
BITMAP
f0
60
f0
ENDCHAR
STARTCHAR plus
ENCODING 43
SWIDTH 336 0
DWIDTH 7 0
BBX 6 5 0 1
BITMAP
30
30
fc
30
30
ENDCHAR
STARTCHAR comma
ENCODING 44
SWIDTH 192 0
DWIDTH 4 0
BBX 3 2 0 -1
BITMAP
60
c0
ENDCHAR
STARTCHAR minus
ENCODING 45
SWIDTH 192 0
DWIDTH 4 0
BBX 3 1 0 3
BITMAP
e0
ENDCHAR
STARTCHAR period
ENCODING 46
SWIDTH 144 0
DWIDTH 3 0
BBX 2 1 0 0
BITMAP
c0
ENDCHAR
STARTCHAR slash
ENCODING 47
SWIDTH 288 0
DWIDTH 6 0
BBX 5 9 0 0
BITMAP
18
18
18
30
30
60
60
c0
c0
ENDCHAR
STARTCHAR 0
ENCODING 48
SWIDTH 336 0
DWIDTH 7 0
BBX 6 9 0 0
BITMAP
78
cc
cc
cc
cc
cc
cc
cc
78
ENDCHAR
STARTCHAR 1
ENCODING 49
SWIDTH 240 0
DWIDTH 5 0
BBX 4 9 0 0
BITMAP
30
f0
30
30
30
30
30
30
30
ENDCHAR
STARTCHAR 2
ENCODING 50
SWIDTH 336 0
DWIDTH 7 0
BBX 6 9 0 0
BITMAP
78
cc
0c
0c
18
30
60
c0
fc
ENDCHAR
STARTCHAR 3
ENCODING 51
SWIDTH 336 0
DWIDTH 7 0
BBX 6 9 0 0
BITMAP
78
cc
0c
0c
38
0c
0c
cc
78
ENDCHAR
STARTCHAR 4
ENCODING 52
SWIDTH 336 0
DWIDTH 7 0
BBX 6 9 0 0
BITMAP
18
38
38
78
78
d8
fc
18
18
ENDCHAR
STARTCHAR 5
ENCODING 53
SWIDTH 336 0
DWIDTH 7 0
BBX 6 9 0 0
BITMAP
fc
c0
c0
f8
cc
0c
0c
cc
78
ENDCHAR
STARTCHAR 6
ENCODING 54
SWIDTH 336 0
DWIDTH 7 0
BBX 6 9 0 0
BITMAP
78
cc
c0
c0
f8
cc
cc
cc
78
ENDCHAR
STARTCHAR 7
ENCODING 55
SWIDTH 336 0
DWIDTH 7 0
BBX 6 9 0 0
BITMAP
fc
0c
18
18
30
30
60
60
60
ENDCHAR
STARTCHAR 8
ENCODING 56
SWIDTH 336 0
DWIDTH 7 0
BBX 6 9 0 0
BITMAP
78
cc
cc
cc
78
cc
cc
cc
78
ENDCHAR
STARTCHAR 9
ENCODING 57
SWIDTH 336 0
DWIDTH 7 0
BBX 6 9 0 0
BITMAP
78
cc
cc
cc
7c
0c
0c
cc
78
ENDCHAR
STARTCHAR colon
ENCODING 58
SWIDTH 144 0
DWIDTH 3 0
BBX 2 6 0 0
BITMAP
c0
00
00
00
00
c0
ENDCHAR
STARTCHAR semicolon
ENCODING 59
SWIDTH 192 0
DWIDTH 4 0
BBX 3 7 0 -1
BITMAP
60
00
00
00
00
60
c0
ENDCHAR
STARTCHAR less
ENCODING 60
SWIDTH 288 0
DWIDTH 6 0
BBX 5 7 0 0
BITMAP
18
30
60
c0
60
30
18
ENDCHAR
STARTCHAR equal
ENCODING 61
SWIDTH 336 0
DWIDTH 7 0
BBX 6 3 0 2
BITMAP
fc
00
fc
ENDCHAR
STARTCHAR greater
ENCODING 62
SWIDTH 288 0
DWIDTH 6 0
BBX 5 7 0 0
BITMAP
c0
60
30
18
30
60
c0
ENDCHAR
STARTCHAR question
ENCODING 63
SWIDTH 336 0
DWIDTH 7 0
BBX 6 9 0 0
BITMAP
78
cc
0c
0c
18
30
30
00
30
ENDCHAR
STARTCHAR at
ENCODING 64
SWIDTH 576 0
DWIDTH 12 0
BBX 11 10 0 -1
BITMAP
1f00
71c0
60c0
cf60
db60
db60
cfc0
6000
7000
1f80
ENDCHAR
STARTCHAR A
ENCODING 65
SWIDTH 432 0
DWIDTH 9 0
BBX 8 9 0 0
BITMAP
18
18
3c
3c
66
66
7e
c3
c3
ENDCHAR
STARTCHAR B
ENCODING 66
SWIDTH 336 0
DWIDTH 7 0
BBX 6 9 0 0
BITMAP
f8
cc
cc
cc
f8
cc
cc
cc
f8
ENDCHAR
STARTCHAR C
ENCODING 67
SWIDTH 384 0
DWIDTH 8 0
BBX 7 9 0 0
BITMAP
7c
c6
c0
c0
c0
c0
c0
c6
7c
ENDCHAR
STARTCHAR D
ENCODING 68
SWIDTH 384 0
DWIDTH 8 0
BBX 7 9 0 0
BITMAP
f8
cc
c6
c6
c6
c6
c6
cc
f8
ENDCHAR
STARTCHAR E
ENCODING 69
SWIDTH 336 0
DWIDTH 7 0
BBX 6 9 0 0
BITMAP
fc
c0
c0
c0
f8
c0
c0
c0
fc
ENDCHAR
STARTCHAR F
ENCODING 70
SWIDTH 336 0
DWIDTH 7 0
BBX 6 9 0 0
BITMAP
fc
c0
c0
c0
f8
c0
c0
c0
c0
ENDCHAR
STARTCHAR G
ENCODING 71
SWIDTH 384 0
DWIDTH 8 0
BBX 7 9 0 0
BITMAP
7c
c6
c0
c0
de
c6
c6
ce
7e
ENDCHAR
STARTCHAR H
ENCODING 72
SWIDTH 384 0
DWIDTH 8 0
BBX 7 9 0 0
BITMAP
c6
c6
c6
c6
fe
c6
c6
c6
c6
ENDCHAR
STARTCHAR I
ENCODING 73
SWIDTH 144 0
DWIDTH 3 0
BBX 2 9 0 0
BITMAP
c0
c0
c0
c0
c0
c0
c0
c0
c0
ENDCHAR
STARTCHAR J
ENCODING 74
SWIDTH 288 0
DWIDTH 6 0
BBX 5 9 0 0
BITMAP
18
18
18
18
18
18
d8
d8
70
ENDCHAR
STARTCHAR K
ENCODING 75
SWIDTH 384 0
DWIDTH 8 0
BBX 7 9 0 0
BITMAP
cc
d8
f0
e0
e0
f0
d8
cc
c6
ENDCHAR
STARTCHAR L
ENCODING 76
SWIDTH 336 0
DWIDTH 7 0
BBX 6 9 0 0
BITMAP
c0
c0
c0
c0
c0
c0
c0
c0
fc
ENDCHAR
STARTCHAR M
ENCODING 77
SWIDTH 432 0
DWIDTH 9 0
BBX 8 9 0 0
BITMAP
c3
c3
e7
e7
ff
ff
db
db
c3
ENDCHAR
STARTCHAR N
ENCODING 78
SWIDTH 384 0
DWIDTH 8 0
BBX 7 9 0 0
BITMAP
c6
e6
e6
f6
f6
de
ce
ce
c6
ENDCHAR
STARTCHAR O
ENCODING 79
SWIDTH 384 0
DWIDTH 8 0
BBX 7 9 0 0
BITMAP
7c
c6
c6
c6
c6
c6
c6
c6
7c
ENDCHAR
STARTCHAR P
ENCODING 80
SWIDTH 384 0
DWIDTH 8 0
BBX 7 9 0 0
BITMAP
fc
c6
c6
c6
fc
c0
c0
c0
c0
ENDCHAR
STARTCHAR Q
ENCODING 81
SWIDTH 384 0
DWIDTH 8 0
BBX 7 10 0 -1
BITMAP
7c
c6
c6
c6
c6
c6
de
ce
7c
06
ENDCHAR
STARTCHAR R
ENCODING 82
SWIDTH 384 0
DWIDTH 8 0
BBX 7 9 0 0
BITMAP
fc
c6
c6
c6
fc
c6
c6
c6
c6
ENDCHAR
STARTCHAR S
ENCODING 83
SWIDTH 336 0
DWIDTH 7 0
BBX 6 9 0 0
BITMAP
78
cc
c0
c0
78
0c
0c
cc
78
ENDCHAR
STARTCHAR T
ENCODING 84
SWIDTH 336 0
DWIDTH 7 0
BBX 6 9 0 0
BITMAP
fc
30
30
30
30
30
30
30
30
ENDCHAR
STARTCHAR U
ENCODING 85
SWIDTH 384 0
DWIDTH 8 0
BBX 7 9 0 0
BITMAP
c6
c6
c6
c6
c6
c6
c6
c6
7c
ENDCHAR
STARTCHAR V
ENCODING 86
SWIDTH 432 0
DWIDTH 9 0
BBX 8 9 0 0
BITMAP
c3
c3
66
66
66
3c
3c
18
18
ENDCHAR
STARTCHAR W
ENCODING 87
SWIDTH 624 0
DWIDTH 13 0
BBX 12 9 0 0
BITMAP
c030
c030
6660
6660
6660
3fc0
3fc0
1980
1980
ENDCHAR
STARTCHAR X
ENCODING 88
SWIDTH 432 0
DWIDTH 9 0
BBX 8 9 0 0
BITMAP
c3
c3
66
3c
18
3c
66
c3
c3
ENDCHAR
STARTCHAR Y
ENCODING 89
SWIDTH 432 0
DWIDTH 9 0
BBX 8 9 0 0
BITMAP
c3
c3
66
3c
18
18
18
18
18
ENDCHAR
STARTCHAR Z
ENCODING 90
SWIDTH 432 0
DWIDTH 9 0
BBX 8 9 0 0
BITMAP
ff
03
06
0c
18
30
60
c0
ff
ENDCHAR
STARTCHAR bracketleft
ENCODING 91
SWIDTH 192 0
DWIDTH 4 0
BBX 3 11 0 -2
BITMAP
e0
c0
c0
c0
c0
c0
c0
c0
c0
c0
e0
ENDCHAR
STARTCHAR backslash
ENCODING 92
SWIDTH 288 0
DWIDTH 6 0
BBX 5 9 0 0
BITMAP
c0
c0
c0
60
60
30
30
18
18
ENDCHAR
STARTCHAR bracketright
ENCODING 93
SWIDTH 192 0
DWIDTH 4 0
BBX 3 11 0 -2
BITMAP
e0
60
60
60
60
60
60
60
60
60
e0
ENDCHAR
STARTCHAR asciicircum
ENCODING 94
SWIDTH 336 0
DWIDTH 7 0
BBX 6 3 0 7
BITMAP
30
78
cc
ENDCHAR
STARTCHAR underscore
ENCODING 95
SWIDTH 384 0
DWIDTH 8 0
BBX 7 1 0 -2
BITMAP
fe
ENDCHAR
STARTCHAR grave
ENCODING 96
SWIDTH 192 0
DWIDTH 4 0
BBX 3 2 0 7
BITMAP
c0
60
ENDCHAR
STARTCHAR a
ENCODING 97
SWIDTH 336 0
DWIDTH 7 0
BBX 6 6 0 0
BITMAP
78
0c
7c
cc
cc
7c
ENDCHAR
STARTCHAR b
ENCODING 98
SWIDTH 336 0
DWIDTH 7 0
BBX 6 9 0 0
BITMAP
c0
c0
c0
f8
cc
cc
cc
cc
f8
ENDCHAR
STARTCHAR c
ENCODING 99
SWIDTH 336 0
DWIDTH 7 0
BBX 6 6 0 0
BITMAP
78
cc
c0
c0
cc
78
ENDCHAR
STARTCHAR d
ENCODING 100
SWIDTH 336 0
DWIDTH 7 0
BBX 6 9 0 0
BITMAP
0c
0c
0c
7c
cc
cc
cc
cc
7c
ENDCHAR
STARTCHAR e
ENCODING 101
SWIDTH 336 0
DWIDTH 7 0
BBX 6 6 0 0
BITMAP
78
cc
fc
c0
cc
78
ENDCHAR
STARTCHAR f
ENCODING 102
SWIDTH 192 0
DWIDTH 4 0
BBX 3 9 0 0
BITMAP
60
c0
c0
e0
c0
c0
c0
c0
c0
ENDCHAR
STARTCHAR g
ENCODING 103
SWIDTH 336 0
DWIDTH 7 0
BBX 6 8 0 -2
BITMAP
7c
cc
cc
cc
cc
7c
0c
f8
ENDCHAR
STARTCHAR h
ENCODING 104
SWIDTH 336 0
DWIDTH 7 0
BBX 6 9 0 0
BITMAP
c0
c0
c0
f8
ec
cc
cc
cc
cc
ENDCHAR
STARTCHAR i
ENCODING 105
SWIDTH 144 0
DWIDTH 3 0
BBX 2 9 0 0
BITMAP
c0
00
00
c0
c0
c0
c0
c0
c0
ENDCHAR
STARTCHAR j
ENCODING 106
SWIDTH 144 0
DWIDTH 3 0
BBX 2 11 0 -2
BITMAP
c0
00
00
c0
c0
c0
c0
c0
c0
c0
80
ENDCHAR
STARTCHAR k
ENCODING 107
SWIDTH 336 0
DWIDTH 7 0
BBX 6 9 0 0
BITMAP
c0
c0
c0
d8
f0
e0
f0
d8
cc
ENDCHAR
STARTCHAR l
ENCODING 108
SWIDTH 144 0
DWIDTH 3 0
BBX 2 9 0 0
BITMAP
c0
c0
c0
c0
c0
c0
c0
c0
c0
ENDCHAR
STARTCHAR m
ENCODING 109
SWIDTH 432 0
DWIDTH 9 0
BBX 8 6 0 0
BITMAP
fe
db
db
db
db
db
ENDCHAR
STARTCHAR n
ENCODING 110
SWIDTH 336 0
DWIDTH 7 0
BBX 6 6 0 0
BITMAP
f8
ec
cc
cc
cc
cc
ENDCHAR
STARTCHAR o
ENCODING 111
SWIDTH 336 0
DWIDTH 7 0
BBX 6 6 0 0
BITMAP
78
cc
cc
cc
cc
78
ENDCHAR
STARTCHAR p
ENCODING 112
SWIDTH 336 0
DWIDTH 7 0
BBX 6 8 0 -2
BITMAP
f8
cc
cc
cc
cc
f8
c0
c0
ENDCHAR
STARTCHAR q
ENCODING 113
SWIDTH 336 0
DWIDTH 7 0
BBX 6 8 0 -2
BITMAP
7c
cc
cc
cc
cc
7c
0c
0c
ENDCHAR
STARTCHAR r
ENCODING 114
SWIDTH 192 0
DWIDTH 4 0
BBX 3 6 0 0
BITMAP
e0
c0
c0
c0
c0
c0
ENDCHAR
STARTCHAR s
ENCODING 115
SWIDTH 288 0
DWIDTH 6 0
BBX 5 6 0 0
BITMAP
70
d8
60
30
d8
70
ENDCHAR
STARTCHAR t
ENCODING 116
SWIDTH 192 0
DWIDTH 4 0
BBX 3 8 0 0
BITMAP
c0
c0
e0
c0
c0
c0
c0
60
ENDCHAR
STARTCHAR u
ENCODING 117
SWIDTH 336 0
DWIDTH 7 0
BBX 6 6 0 0
BITMAP
cc
cc
cc
cc
dc
7c
ENDCHAR
STARTCHAR v
ENCODING 118
SWIDTH 336 0
DWIDTH 7 0
BBX 6 6 0 0
BITMAP
cc
cc
78
78
30
30
ENDCHAR
STARTCHAR w
ENCODING 119
SWIDTH 432 0
DWIDTH 9 0
BBX 8 6 0 0
BITMAP
db
db
ff
ff
66
66
ENDCHAR
STARTCHAR x
ENCODING 120
SWIDTH 336 0
DWIDTH 7 0
BBX 6 6 0 0
BITMAP
cc
cc
78
78
cc
cc
ENDCHAR
STARTCHAR y
ENCODING 121
SWIDTH 336 0
DWIDTH 7 0
BBX 6 8 0 -2
BITMAP
6c
6c
6c
6c
38
30
30
e0
ENDCHAR
STARTCHAR z
ENCODING 122
SWIDTH 288 0
DWIDTH 6 0
BBX 5 6 0 0
BITMAP
f8
18
30
60
c0
f8
ENDCHAR
STARTCHAR braceleft
ENCODING 123
SWIDTH 240 0
DWIDTH 5 0
BBX 4 11 0 -1
BITMAP
30
60
60
60
60
c0
60
60
60
60
30
ENDCHAR
STARTCHAR bar
ENCODING 124
SWIDTH 144 0
DWIDTH 3 0
BBX 2 10 0 -1
BITMAP
c0
c0
c0
c0
c0
c0
c0
c0
c0
c0
ENDCHAR
STARTCHAR braceright
ENCODING 125
SWIDTH 240 0
DWIDTH 5 0
BBX 4 11 0 -1
BITMAP
c0
60
60
60
60
30
60
60
60
60
c0
ENDCHAR
STARTCHAR asciitilde
ENCODING 126
SWIDTH 288 0
DWIDTH 6 0
BBX 5 2 0 7
BITMAP
e8
b8
ENDCHAR
STARTCHAR C200
ENCODING 128
SWIDTH 480 0
DWIDTH 10 0
BBX 8 10 0 0
BITMAP
00
00
00
00
06
7e
c6
1e
06
06
ENDCHAR
STARTCHAR C201
ENCODING 129
SWIDTH 480 0
DWIDTH 10 0
BBX 8 10 0 0
BITMAP
00
00
00
00
00
00
00
00
00
00
ENDCHAR
STARTCHAR C202
ENCODING 130
SWIDTH 480 0
DWIDTH 10 0
BBX 8 10 0 0
BITMAP
00
00
00
00
00
00
00
00
00
00
ENDCHAR
STARTCHAR C203
ENCODING 131
SWIDTH 480 0
DWIDTH 10 0
BBX 8 10 0 0
BITMAP
00
00
00
00
00
00
00
00
00
00
ENDCHAR
STARTCHAR C204
ENCODING 132
SWIDTH 480 0
DWIDTH 10 0
BBX 8 10 0 0
BITMAP
00
00
00
00
00
00
00
00
00
00
ENDCHAR
STARTCHAR C205
ENCODING 133
SWIDTH 480 0
DWIDTH 10 0
BBX 8 10 0 0
BITMAP
00
00
00
00
00
00
00
00
db
db
ENDCHAR
STARTCHAR C206
ENCODING 134
SWIDTH 480 0
DWIDTH 10 0
BBX 8 10 0 0
BITMAP
00
00
00
00
00
00
00
00
00
00
ENDCHAR
STARTCHAR C207
ENCODING 135
SWIDTH 480 0
DWIDTH 10 0
BBX 8 10 0 0
BITMAP
00
00
00
00
00
00
00
00
00
00
ENDCHAR
STARTCHAR C210
ENCODING 136
SWIDTH 480 0
DWIDTH 10 0
BBX 8 10 0 0
BITMAP
00
00
00
00
00
00
00
00
00
00
ENDCHAR
STARTCHAR C211
ENCODING 137
SWIDTH 480 0
DWIDTH 10 0
BBX 8 10 0 0
BITMAP
00
00
00
00
00
00
00
00
00
00
ENDCHAR
STARTCHAR C212
ENCODING 138
SWIDTH 480 0
DWIDTH 10 0
BBX 8 10 0 0
BITMAP
00
00
00
00
00
00
00
00
00
00
ENDCHAR
STARTCHAR C213
ENCODING 139
SWIDTH 480 0
DWIDTH 10 0
BBX 8 10 0 0
BITMAP
00
00
00
00
00
00
00
00
00
00
ENDCHAR
STARTCHAR C214
ENCODING 140
SWIDTH 480 0
DWIDTH 10 0
BBX 8 10 0 0
BITMAP
00
00
00
00
00
00
00
00
00
00
ENDCHAR
STARTCHAR C215
ENCODING 141
SWIDTH 480 0
DWIDTH 10 0
BBX 8 10 0 0
BITMAP
00
00
00
00
00
00
00
00
00
00
ENDCHAR
STARTCHAR C216
ENCODING 142
SWIDTH 480 0
DWIDTH 10 0
BBX 8 10 0 0
BITMAP
00
00
00
00
00
00
00
00
00
00
ENDCHAR
STARTCHAR C217
ENCODING 143
SWIDTH 480 0
DWIDTH 10 0
BBX 8 10 0 0
BITMAP
00
00
00
00
00
00
00
00
00
00
ENDCHAR
STARTCHAR C220
ENCODING 144
SWIDTH 480 0
DWIDTH 10 0
BBX 10 10 0 0
BITMAP
0000
0000
0000
0000
f8c0
ccc0
6cc0
ccc0
ccc0
ef80
ENDCHAR
STARTCHAR C221
ENCODING 145
SWIDTH 480 0
DWIDTH 10 0
BBX 8 10 0 0
BITMAP
00
00
00
00
00
00
00
40
c0
c0
ENDCHAR
STARTCHAR C222
ENCODING 146
SWIDTH 480 0
DWIDTH 10 0
BBX 8 10 0 0
BITMAP
00
00
00
00
00
00
00
c0
c0
80
ENDCHAR
STARTCHAR C223
ENCODING 147
SWIDTH 480 0
DWIDTH 10 0
BBX 8 10 0 0
BITMAP
00
00
00
00
00
00
00
48
d8
d8
ENDCHAR
STARTCHAR C224
ENCODING 148
SWIDTH 480 0
DWIDTH 10 0
BBX 8 10 0 0
BITMAP
00
00
00
00
00
00
00
d8
d8
90
ENDCHAR
STARTCHAR C225
ENCODING 149
SWIDTH 480 0
DWIDTH 10 0
BBX 8 10 0 0
BITMAP
00
00
00
00
00
00
00
70
f8
70
ENDCHAR
STARTCHAR C226
ENCODING 150
SWIDTH 480 0
DWIDTH 10 0
BBX 8 1 0 0
BITMAP
ff
ENDCHAR
STARTCHAR C227
ENCODING 151
SWIDTH 672 0
DWIDTH 14 0
BBX 14 1 0 0
BITMAP
ffc0
ENDCHAR
STARTCHAR C230
ENCODING 152
SWIDTH 480 0
DWIDTH 10 0
BBX 8 10 0 0
BITMAP
00
00
00
00
00
00
00
00
00
00
ENDCHAR
STARTCHAR C231
ENCODING 153
SWIDTH 480 0
DWIDTH 10 0
BBX 8 10 0 0
BITMAP
00
00
00
00
00
00
00
00
00
00
ENDCHAR
STARTCHAR C232
ENCODING 154
SWIDTH 480 0
DWIDTH 10 0
BBX 8 10 0 0
BITMAP
00
00
00
00
00
00
00
00
00
00
ENDCHAR
STARTCHAR C233
ENCODING 155
SWIDTH 480 0
DWIDTH 10 0
BBX 8 10 0 0
BITMAP
00
00
00
00
00
00
00
00
00
00
ENDCHAR
STARTCHAR C234
ENCODING 156
SWIDTH 480 0
DWIDTH 10 0
BBX 8 10 0 0
BITMAP
00
00
00
00
00
00
00
00
00
00
ENDCHAR
STARTCHAR C235
ENCODING 157
SWIDTH 480 0
DWIDTH 10 0
BBX 8 10 0 0
BITMAP
00
00
00
00
00
00
00
00
00
00
ENDCHAR
STARTCHAR C236
ENCODING 158
SWIDTH 480 0
DWIDTH 10 0
BBX 8 10 0 0
BITMAP
00
00
00
00
00
00
00
00
00
00
ENDCHAR
STARTCHAR C237
ENCODING 159
SWIDTH 480 0
DWIDTH 10 0
BBX 8 10 0 0
BITMAP
00
00
00
00
00
00
00
00
00
00
ENDCHAR
STARTCHAR nobreakspace
ENCODING 160
SWIDTH 480 0
DWIDTH 10 0
BBX 8 10 0 0
BITMAP
00
00
00
00
00
00
00
00
00
00
ENDCHAR
STARTCHAR exclamdown
ENCODING 161
SWIDTH 336 0
DWIDTH 7 0
BBX 6 6 0 0
BITMAP
f8
cc
4c
cc
cc
cc
ENDCHAR
STARTCHAR cent
ENCODING 162
SWIDTH 336 0
DWIDTH 7 0
BBX 6 6 0 0
BITMAP
ec
6c
6c
6c
6c
78
ENDCHAR
STARTCHAR sterling
ENCODING 163
SWIDTH 336 0
DWIDTH 7 0
BBX 6 6 0 0
BITMAP
ac
ec
6c
6c
6c
78
ENDCHAR
STARTCHAR currency
ENCODING 164
SWIDTH 336 0
DWIDTH 7 0
BBX 6 6 0 0
BITMAP
78
cc
cc
ec
cc
cc
ENDCHAR
STARTCHAR yen
ENCODING 165
SWIDTH 336 0
DWIDTH 7 0
BBX 6 6 0 0
BITMAP
cc
fc
cc
ec
cc
cc
ENDCHAR
STARTCHAR brokenbar
ENCODING 166
SWIDTH 384 0
DWIDTH 8 0
BBX 7 6 0 0
BITMAP
a6
e6
66
66
76
6c
ENDCHAR
STARTCHAR section
ENCODING 167
SWIDTH 288 0
DWIDTH 6 0
BBX 5 6 0 0
BITMAP
38
18
98
98
58
78
ENDCHAR
STARTCHAR diaeresis
ENCODING 168
SWIDTH 384 0
DWIDTH 8 0
BBX 7 6 0 0
BITMAP
7c
c6
1e
06
06
06
ENDCHAR
STARTCHAR copyright
ENCODING 169
SWIDTH 384 0
DWIDTH 8 0
BBX 7 6 0 0
BITMAP
78
cc
0c
ec
7e
6c
ENDCHAR
STARTCHAR ordfeminine
ENCODING 170
SWIDTH 384 0
DWIDTH 8 0
BBX 7 6 0 0
BITMAP
e6
6c
66
66
66
7c
ENDCHAR
STARTCHAR guillemotleft
ENCODING 171
SWIDTH 384 0
DWIDTH 8 0
BBX 7 6 0 0
BITMAP
a6
ec
66
66
66
7c
ENDCHAR
STARTCHAR notsign
ENCODING 172
SWIDTH 528 0
DWIDTH 11 0
BBX 10 6 0 0
BITMAP
f8c0
ccc0
6cc0
ccc0
dec0
ed80
ENDCHAR
STARTCHAR hyphen
ENCODING 173
SWIDTH 528 0
DWIDTH 11 0
BBX 10 7 0 -1
BITMAP
f8c0
ccc0
6cc0
ccc0
cfc0
e0c0
0f80
ENDCHAR
STARTCHAR registered
ENCODING 174
SWIDTH 384 0
DWIDTH 8 0
BBX 7 7 0 -1
BITMAP
3c
66
36
66
e6
06
7e
ENDCHAR
STARTCHAR macron
ENCODING 175
SWIDTH 384 0
DWIDTH 8 0
BBX 7 7 0 -1
BITMAP
3c
66
36
66
e6
16
6e
ENDCHAR
STARTCHAR degree
ENCODING 176
SWIDTH 384 0
DWIDTH 8 0
BBX 7 8 0 -1
BITMAP
06
7e
c6
1e
06
06
00
fe
ENDCHAR
STARTCHAR plusminus
ENCODING 177
SWIDTH 384 0
DWIDTH 8 0
BBX 7 6 0 0
BITMAP
bc
f6
66
66
66
66
ENDCHAR
STARTCHAR twosuperior
ENCODING 178
SWIDTH 528 0
DWIDTH 11 0
BBX 10 6 0 0
BITMAP
ccc0
fcc0
ccc0
ccc0
eec0
6d80
ENDCHAR
STARTCHAR threesuperior
ENCODING 179
SWIDTH 528 0
DWIDTH 11 0
BBX 10 6 0 0
BITMAP
f8c0
ccc0
6cc0
ccc0
cdc0
e6c0
ENDCHAR
STARTCHAR acute
ENCODING 180
SWIDTH 384 0
DWIDTH 8 0
BBX 7 6 0 0
BITMAP
7c
c6
f6
d6
f6
66
ENDCHAR
STARTCHAR mu
ENCODING 181
SWIDTH 384 0
DWIDTH 8 0
BBX 7 6 0 0
BITMAP
6c
fe
f6
d6
f6
66
ENDCHAR
STARTCHAR paragraph
ENCODING 182
SWIDTH 336 0
DWIDTH 7 0
BBX 6 6 0 0
BITMAP
f8
cc
6c
cc
cc
ec
ENDCHAR
STARTCHAR periodcentered
ENCODING 183
SWIDTH 384 0
DWIDTH 8 0
BBX 7 6 0 0
BITMAP
ec
76
66
66
66
66
ENDCHAR
STARTCHAR cedilla
ENCODING 184
SWIDTH 336 0
DWIDTH 7 0
BBX 6 6 0 0
BITMAP
7c
c0
7c
cc
cc
f8
ENDCHAR
STARTCHAR onesuperior
ENCODING 185
SWIDTH 384 0
DWIDTH 8 0
BBX 7 6 0 0
BITMAP
e6
66
66
66
6e
36
ENDCHAR
STARTCHAR masculine
ENCODING 186
SWIDTH 384 0
DWIDTH 8 0
BBX 7 6 0 0
BITMAP
e6
66
66
66
66
7c
ENDCHAR
STARTCHAR guillemotright
ENCODING 187
SWIDTH 384 0
DWIDTH 8 0
BBX 7 8 0 0
BITMAP
06
06
e6
66
66
66
66
7c
ENDCHAR
STARTCHAR onequarter
ENCODING 188
SWIDTH 432 0
DWIDTH 9 0
BBX 8 6 0 0
BITMAP
63
c3
db
db
db
fe
ENDCHAR
STARTCHAR onehalf
ENCODING 189
SWIDTH 432 0
DWIDTH 9 0
BBX 8 8 0 0
BITMAP
03
03
63
c3
db
db
db
fe
ENDCHAR
STARTCHAR threequarters
ENCODING 190
SWIDTH 480 0
DWIDTH 10 0
BBX 9 6 0 0
BITMAP
ed80
6d80
6d80
6d80
6d80
7f00
ENDCHAR
STARTCHAR questiondown
ENCODING 191
SWIDTH 480 0
DWIDTH 10 0
BBX 9 8 0 0
BITMAP
0180
0180
ed80
6d80
6d80
6d80
6d80
7f00
ENDCHAR
STARTCHAR Agrave
ENCODING 192
SWIDTH 384 0
DWIDTH 8 0
BBX 7 6 0 0
BITMAP
7c
66
36
66
66
e6
ENDCHAR
STARTCHAR Aacute
ENCODING 193
SWIDTH 384 0
DWIDTH 8 0
BBX 7 6 0 0
BITMAP
e6
66
66
66
f6
6c
ENDCHAR
STARTCHAR Acircumflex
ENCODING 194
SWIDTH 336 0
DWIDTH 7 0
BBX 6 6 0 0
BITMAP
6c
cc
6c
cc
cc
f8
ENDCHAR
STARTCHAR Atilde
ENCODING 195
SWIDTH 288 0
DWIDTH 6 0
BBX 5 6 0 0
BITMAP
78
c0
f0
18
18
70
ENDCHAR
STARTCHAR Adiaeresis
ENCODING 196
SWIDTH 336 0
DWIDTH 7 0
BBX 6 7 0 -1
BITMAP
f8
cc
6c
cc
cc
ec
0c
ENDCHAR
STARTCHAR Aring
ENCODING 197
SWIDTH 336 0
DWIDTH 7 0
BBX 6 6 0 0
BITMAP
78
cc
0c
7c
cc
ec
ENDCHAR
STARTCHAR AE
ENCODING 198
SWIDTH 384 0
DWIDTH 8 0
BBX 7 7 0 -1
BITMAP
7c
66
36
66
66
e6
06
ENDCHAR
STARTCHAR Ccedilla
ENCODING 199
SWIDTH 288 0
DWIDTH 6 0
BBX 5 6 0 0
BITMAP
70
d8
18
18
d8
70
ENDCHAR
STARTCHAR Egrave
ENCODING 200
SWIDTH 336 0
DWIDTH 7 0
BBX 6 7 0 0
BITMAP
0c
7c
cc
ec
cc
cc
cc
ENDCHAR
STARTCHAR Eacute
ENCODING 201
SWIDTH 432 0
DWIDTH 9 0
BBX 8 6 0 0
BITMAP
e6
66
6f
66
66
7c
ENDCHAR
STARTCHAR Ecircumflex
ENCODING 202
SWIDTH 336 0
DWIDTH 7 0
BBX 6 7 0 0
BITMAP
0c
7c
cc
0c
7c
cc
ec
ENDCHAR
STARTCHAR Ediaeresis
ENCODING 203
SWIDTH 384 0
DWIDTH 8 0
BBX 7 6 0 0
BITMAP
ee
6c
76
66
66
66
ENDCHAR
STARTCHAR Igrave
ENCODING 204
SWIDTH 480 0
DWIDTH 10 0
BBX 10 7 0 0
BITMAP
00c0
ed80
6d80
6d80
6d80
6d80
7f00
ENDCHAR
STARTCHAR Iacute
ENCODING 205
SWIDTH 336 0
DWIDTH 7 0
BBX 6 6 0 0
BITMAP
78
cc
0c
ec
cc
f8
ENDCHAR
STARTCHAR Icircumflex
ENCODING 206
SWIDTH 336 0
DWIDTH 7 0
BBX 6 7 0 0
BITMAP
0c
7c
cc
0c
ec
cc
f8
ENDCHAR
STARTCHAR Idiaeresis
ENCODING 207
SWIDTH 336 0
DWIDTH 7 0
BBX 6 6 0 0
BITMAP
dc
fc
0c
0c
0c
0c
ENDCHAR
STARTCHAR ETH
ENCODING 208
SWIDTH 240 0
DWIDTH 5 0
BBX 4 5 0 1
BITMAP
c0
f0
00
c0
f0
ENDCHAR
STARTCHAR Ntilde
ENCODING 209
SWIDTH 0 0
DWIDTH 0 0
BBX 6 2 -6 7
BITMAP
cc
f8
ENDCHAR
STARTCHAR Ograve
ENCODING 210
SWIDTH 240 0
DWIDTH 5 0
BBX 4 6 0 0
BITMAP
e0
30
30
30
30
30
ENDCHAR
STARTCHAR Oacute
ENCODING 211
SWIDTH 240 0
DWIDTH 5 0
BBX 7 10 -4 0
BITMAP
60
a0
c0
00
1c
06
06
06
06
06
ENDCHAR
STARTCHAR Ocircumflex
ENCODING 212
SWIDTH 0 0
DWIDTH 0 0
BBX 6 2 -7 7
BITMAP
78
fc
ENDCHAR
STARTCHAR Otilde
ENCODING 213
SWIDTH 0 0
DWIDTH 0 0
BBX 7 2 -8 7
BITMAP
76
fe
ENDCHAR
STARTCHAR Odiaeresis
ENCODING 214
SWIDTH 0 0
DWIDTH 0 0
BBX 7 3 -8 7
BITMAP
04
7a
fc
ENDCHAR
STARTCHAR multiply
ENCODING 215
SWIDTH 0 0
DWIDTH 0 0
BBX 7 3 -8 7
BITMAP
0a
7a
fe
ENDCHAR
STARTCHAR Ooblique
ENCODING 216
SWIDTH 0 0
DWIDTH 0 0
BBX 3 2 -4 -2
BITMAP
e0
60
ENDCHAR
STARTCHAR Ugrave
ENCODING 217
SWIDTH 0 0
DWIDTH 0 0
BBX 6 2 -7 -2
BITMAP
ec
7c
ENDCHAR
STARTCHAR Uacute
ENCODING 218
SWIDTH 0 0
DWIDTH 0 0
BBX 2 2 -3 -2
BITMAP
c0
c0
ENDCHAR
STARTCHAR Ucircumflex
ENCODING 219
SWIDTH 480 0
DWIDTH 10 0
BBX 8 10 0 0
BITMAP
00
00
00
00
00
00
00
00
00
00
ENDCHAR
STARTCHAR Udiaeresis
ENCODING 220
SWIDTH 480 0
DWIDTH 10 0
BBX 8 10 0 0
BITMAP
00
00
00
00
00
00
00
00
00
00
ENDCHAR
STARTCHAR Yacute
ENCODING 221
SWIDTH 480 0
DWIDTH 10 0
BBX 8 10 0 0
BITMAP
00
00
00
00
00
00
00
00
00
00
ENDCHAR
STARTCHAR THORN
ENCODING 222
SWIDTH 480 0
DWIDTH 10 0
BBX 8 10 0 0
BITMAP
00
00
00
00
00
00
00
00
00
00
ENDCHAR
STARTCHAR ssharp
ENCODING 223
SWIDTH 432 0
DWIDTH 9 0
BBX 8 10 0 -1
BITMAP
18
fe
db
db
fe
db
db
db
fe
18
ENDCHAR
STARTCHAR agrave
ENCODING 224
SWIDTH 144 0
DWIDTH 3 0
BBX 2 6 0 0
BITMAP
c0
c0
c0
c0
c0
c0
ENDCHAR
STARTCHAR aacute
ENCODING 225
SWIDTH 288 0
DWIDTH 6 0
BBX 5 6 0 0
BITMAP
d8
d8
d8
d8
d8
d8
ENDCHAR
STARTCHAR acircumflex
ENCODING 226
SWIDTH 192 0
DWIDTH 4 0
BBX 4 9 -1 0
BITMAP
70
e0
60
60
60
60
60
60
60
ENDCHAR
STARTCHAR atilde
ENCODING 227
SWIDTH 240 0
DWIDTH 5 0
BBX 4 9 -1 0
BITMAP
60
f0
b0
30
30
30
30
30
30
ENDCHAR
STARTCHAR adiaeresis
ENCODING 228
SWIDTH 240 0
DWIDTH 5 0
BBX 4 9 -1 0
BITMAP
a0
f0
70
30
30
30
30
30
30
ENDCHAR
STARTCHAR aring
ENCODING 229
SWIDTH 240 0
DWIDTH 5 0
BBX 4 8 0 -2
BITMAP
e0
30
30
30
30
30
30
30
ENDCHAR
STARTCHAR ae
ENCODING 230
SWIDTH 336 0
DWIDTH 7 0
BBX 6 8 0 -2
BITMAP
d8
fc
cc
0c
0c
0c
0c
0c
ENDCHAR
STARTCHAR ccedilla
ENCODING 231
SWIDTH 0 0
DWIDTH 0 0
BBX 6 4 -7 7
BITMAP
04
78
c4
fc
ENDCHAR
STARTCHAR egrave
ENCODING 232
SWIDTH 0 0
DWIDTH 0 0
BBX 2 2 -3 9
BITMAP
c0
c0
ENDCHAR
STARTCHAR eacute
ENCODING 233
SWIDTH 0 0
DWIDTH 0 0
BBX 4 2 -4 9
BITMAP
d0
60
ENDCHAR
STARTCHAR ecircumflex
ENCODING 234
SWIDTH 0 0
DWIDTH 0 0
BBX 5 2 -5 9
BITMAP
e8
b0
ENDCHAR
STARTCHAR ediaeresis
ENCODING 235
SWIDTH 0 0
DWIDTH 0 0
BBX 4 3 -4 9
BITMAP
60
f0
60
ENDCHAR
STARTCHAR igrave
ENCODING 236
SWIDTH 0 0
DWIDTH 0 0
BBX 3 3 -4 9
BITMAP
60
c0
c0
ENDCHAR
STARTCHAR iacute
ENCODING 237
SWIDTH 0 0
DWIDTH 0 0
BBX 3 3 -4 7
BITMAP
60
a0
c0
ENDCHAR
STARTCHAR icircumflex
ENCODING 238
SWIDTH 480 0
DWIDTH 10 0
BBX 4 4 -5 7
BITMAP
70
c0
60
70
ENDCHAR
STARTCHAR idiaeresis
ENCODING 239
SWIDTH 480 0
DWIDTH 10 0
BBX 8 10 0 0
BITMAP
00
00
00
00
00
00
00
00
00
00
ENDCHAR
STARTCHAR eth
ENCODING 240
SWIDTH 336 0
DWIDTH 7 0
BBX 6 6 0 0
BITMAP
78
cc
cc
cc
cc
78
ENDCHAR
STARTCHAR ntilde
ENCODING 241
SWIDTH 384 0
DWIDTH 8 0
BBX 7 6 0 0
BITMAP
7c
c6
d6
f6
76
0c
ENDCHAR
STARTCHAR ograve
ENCODING 242
SWIDTH 432 0
DWIDTH 9 0
BBX 8 8 0 0
BITMAP
80
c0
db
df
db
db
c3
fe
ENDCHAR
STARTCHAR oacute
ENCODING 243
SWIDTH 384 0
DWIDTH 8 0
BBX 7 6 0 0
BITMAP
66
fe
d6
c6
e6
66
ENDCHAR
STARTCHAR ocircumflex
ENCODING 244
SWIDTH 384 0
DWIDTH 8 0
BBX 7 8 0 0
BITMAP
06
06
06
7c
c0
dc
d8
7e
ENDCHAR
STARTCHAR otilde
ENCODING 245
SWIDTH 384 0
DWIDTH 8 0
BBX 7 8 0 0
BITMAP
06
06
36
7c
c0
dc
d8
7e
ENDCHAR
STARTCHAR odiaeresis
ENCODING 246
SWIDTH 384 0
DWIDTH 8 0
BBX 7 8 0 0
BITMAP
c0
60
60
7c
06
76
66
7c
ENDCHAR
STARTCHAR division
ENCODING 247
SWIDTH 480 0
DWIDTH 10 0
BBX 9 8 0 0
BITMAP
0100
0180
0180
cd80
fd80
cd80
cd80
6f00
ENDCHAR
STARTCHAR oslash
ENCODING 248
SWIDTH 384 0
DWIDTH 8 0
BBX 7 8 0 0
BITMAP
06
06
06
7c
c0
d6
f6
dc
ENDCHAR
STARTCHAR ugrave
ENCODING 249
SWIDTH 432 0
DWIDTH 9 0
BBX 8 8 0 0
BITMAP
03
03
07
7e
d8
cc
f6
72
ENDCHAR
STARTCHAR uacute
ENCODING 250
SWIDTH 480 0
DWIDTH 10 0
BBX 9 6 0 0
BITMAP
dd80
fd80
0d80
0d80
0d80
0d80
ENDCHAR
STARTCHAR ucircumflex
ENCODING 251
SWIDTH 528 0
DWIDTH 11 0
BBX 10 5 0 1
BITMAP
6000
d500
8fc0
da00
7000
ENDCHAR
STARTCHAR udiaeresis
ENCODING 252
SWIDTH 480 0
DWIDTH 10 0
BBX 8 10 0 0
BITMAP
00
00
00
00
00
00
00
00
00
00
ENDCHAR
STARTCHAR yacute
ENCODING 253
SWIDTH 480 0
DWIDTH 10 0
BBX 8 10 0 0
BITMAP
00
00
00
00
00
00
00
00
00
00
ENDCHAR
STARTCHAR thorn
ENCODING 254
SWIDTH 480 0
DWIDTH 10 0
BBX 8 10 0 0
BITMAP
00
00
00
00
00
00
00
00
00
00
ENDCHAR
STARTCHAR ydiaeresis
ENCODING 255
SWIDTH 480 0
DWIDTH 10 0
BBX 8 10 0 0
BITMAP
00
00
00
00
00
00
00
00
00
00
ENDCHAR
ENDFONT
